<svg width="44" height="40" viewBox="0 0 44 40" fill="none" xmlns="http://www.w3.org/2000/svg">
<path d="M42.8334 13.75H1.16675M26.1667 31.4583L31.3751 26.25L26.1667 21.0417M17.8334 21.0417L12.6251 26.25L17.8334 31.4583M1.16675 11.25L1.16675 28.75C1.16675 32.2503 1.16675 34.0005 1.84796 35.3374C2.44717 36.5134 3.40329 37.4696 4.57931 38.0688C5.91625 38.75 7.66642 38.75 11.1667 38.75H32.8334C36.3337 38.75 38.0839 38.75 39.4209 38.0688C40.5969 37.4696 41.553 36.5135 42.1522 35.3374C42.8334 34.0005 42.8334 32.2503 42.8334 28.75V11.25C42.8334 7.74967 42.8334 5.99951 42.1522 4.66256C41.553 3.48655 40.5969 2.53042 39.4209 1.93121C38.0839 1.25 36.3337 1.25 32.8334 1.25L11.1668 1.25C7.66642 1.25 5.91626 1.25 4.57931 1.93121C3.4033 2.53042 2.44717 3.48655 1.84796 4.66256C1.16675 5.99951 1.16675 7.74967 1.16675 11.25Z" stroke="url(#paint0_linear_186_84)" stroke-width="2" stroke-linecap="round" stroke-linejoin="round"/>
<defs>
<linearGradient id="paint0_linear_186_84" x1="22.0001" y1="1.25" x2="22.0001" y2="38.75" gradientUnits="userSpaceOnUse">
<stop stop-color="#964B00"/>
<stop offset="1" stop-color="#301800"/>
</linearGradient>
</defs>
</svg>
