<svg width="40" height="44" viewBox="0 0 40 44" fill="none" xmlns="http://www.w3.org/2000/svg">
<path d="M14.5732 37.3564L15.7908 40.0949C16.1527 40.91 16.7434 41.6026 17.4912 42.0887C18.239 42.5748 19.1118 42.8334 20.0037 42.8333C20.8956 42.8334 21.7684 42.5748 22.5162 42.0887C23.264 41.6026 23.8547 40.91 24.2167 40.0949L25.4343 37.3564C25.8677 36.3848 26.5968 35.5747 27.5176 35.0416C28.4442 34.5071 29.5162 34.2794 30.5801 34.3912L33.5593 34.7083C34.4461 34.8021 35.3411 34.6366 36.1357 34.2319C36.9303 33.8272 37.5905 33.2006 38.0361 32.4282C38.4823 31.6562 38.6949 30.7714 38.6481 29.881C38.6012 28.9906 38.297 28.1329 37.7722 27.412L36.0084 24.9884C35.3803 24.119 35.0447 23.0725 35.05 22C35.0498 20.9303 35.3886 19.8882 36.0176 19.0231L37.7815 16.5995C38.3062 15.8786 38.6105 15.0209 38.6573 14.1305C38.7042 13.2401 38.4916 12.3553 38.0454 11.5833C37.5998 10.8109 36.9396 10.1843 36.145 9.7796C35.3503 9.37489 34.4553 9.2094 33.5685 9.3032L30.5894 9.62033C29.5255 9.73206 28.4535 9.50438 27.5269 8.96987C26.6042 8.43382 25.8749 7.61945 25.4435 6.64348L24.2167 3.90505C23.8547 3.0899 23.264 2.39728 22.5162 1.91121C21.7684 1.42513 20.8956 1.16648 20.0037 1.16663C19.1118 1.16648 18.239 1.42513 17.4912 1.91121C16.7434 2.39728 16.1527 3.0899 15.7908 3.90505L14.5732 6.64348C14.1418 7.61945 13.4125 8.43382 12.4898 8.96987C11.5632 9.50438 10.4912 9.73206 9.42733 9.62033L6.43891 9.3032C5.55209 9.2094 4.65711 9.37489 3.86248 9.7796C3.06785 10.1843 2.40769 10.8109 1.96206 11.5833C1.51585 12.3553 1.30327 13.2401 1.35011 14.1305C1.39695 15.0209 1.7012 15.8786 2.22594 16.5995L3.98983 19.0231C4.61888 19.8882 4.95762 20.9303 4.95743 22C4.95762 23.0696 4.61888 24.1117 3.98983 24.9768L2.22594 27.4004C1.7012 28.1213 1.39695 28.979 1.35011 29.8694C1.30327 30.7598 1.51585 31.6447 1.96206 32.4166C2.40813 33.1887 3.06837 33.8149 3.86288 34.2195C4.6574 34.6242 5.55216 34.7899 6.43891 34.6967L9.41807 34.3796C10.482 34.2679 11.5539 34.4955 12.4806 35.03C13.4067 35.5646 14.1393 36.3791 14.5732 37.3564Z" stroke="url(#paint0_linear_186_83)" stroke-width="2" stroke-linecap="round" stroke-linejoin="round"/>
<path d="M20 28.25C23.4518 28.25 26.25 25.4517 26.25 22C26.25 18.5482 23.4518 15.75 20 15.75C16.5482 15.75 13.75 18.5482 13.75 22C13.75 25.4517 16.5482 28.25 20 28.25Z" stroke="url(#paint1_linear_186_83)" stroke-width="2" stroke-linecap="round" stroke-linejoin="round"/>
<defs>
<linearGradient id="paint0_linear_186_83" x1="20.0037" y1="1.16663" x2="20.0037" y2="42.8333" gradientUnits="userSpaceOnUse">
<stop stop-color="#964B00"/>
<stop offset="1" stop-color="#301800"/>
</linearGradient>
<linearGradient id="paint1_linear_186_83" x1="20.0037" y1="1.16663" x2="20.0037" y2="42.8333" gradientUnits="userSpaceOnUse">
<stop stop-color="#964B00"/>
<stop offset="1" stop-color="#301800"/>
</linearGradient>
</defs>
</svg>
