<svg width="44" height="44" viewBox="0 0 44 44" fill="none" xmlns="http://www.w3.org/2000/svg">
<path d="M22.0001 1.16669C28.2501 5.33335 30.1725 14.2751 30.3334 22C30.1725 29.7249 28.2501 38.6667 22.0001 42.8334M22.0001 1.16669C15.7501 5.33335 13.8277 14.2751 13.6667 22C13.8277 29.725 15.7501 38.6667 22.0001 42.8334M22.0001 1.16669C10.4941 1.16669 1.16675 10.4941 1.16675 22M22.0001 1.16669C33.506 1.16669 42.8334 10.4941 42.8334 22M22.0001 42.8334C33.506 42.8334 42.8334 33.506 42.8334 22M22.0001 42.8334C10.4942 42.8334 1.16675 33.506 1.16675 22M42.8334 22C38.6667 28.25 29.725 30.1724 22.0001 30.3334C14.2752 30.1724 5.33341 28.25 1.16675 22M42.8334 22C38.6667 15.75 29.725 13.8276 22.0001 13.6667C14.2752 13.8276 5.33342 15.75 1.16675 22" stroke="url(#paint0_linear_186_88)" stroke-width="2" stroke-linecap="round" stroke-linejoin="round"/>
<defs>
<linearGradient id="paint0_linear_186_88" x1="22.0001" y1="1.16669" x2="22.0001" y2="42.8334" gradientUnits="userSpaceOnUse">
<stop stop-color="#964B00"/>
<stop offset="1" stop-color="#301800"/>
</linearGradient>
</defs>
</svg>
