<svg width="36" height="44" viewBox="0 0 36 44" fill="none" xmlns="http://www.w3.org/2000/svg">
<path d="M24.2499 1.16669V4.08335C24.2499 5.25013 24.2499 5.83352 24.0229 6.27917C23.8231 6.67117 23.5044 6.98988 23.1124 7.18962C22.6668 7.41669 22.0834 7.41669 20.9166 7.41669H15.0833C13.9165 7.41669 13.3331 7.41669 12.8874 7.18962C12.4954 6.98988 12.1767 6.67117 11.977 6.27917C11.7499 5.83352 11.7499 5.25013 11.7499 4.08335V1.16669M7.99992 42.8334H27.9999C30.3335 42.8334 31.5002 42.8334 32.3915 42.3792C33.1756 41.9797 33.813 41.3423 34.2124 40.5583C34.6666 39.667 34.6666 38.5002 34.6666 36.1667V7.83335C34.6666 5.4998 34.6666 4.33303 34.2124 3.44173C33.813 2.65772 33.1756 2.0203 32.3915 1.62083C31.5002 1.16669 30.3335 1.16669 27.9999 1.16669H7.99992C5.66637 1.16669 4.49959 1.16669 3.60829 1.62083C2.82428 2.0203 2.18686 2.65772 1.78739 3.44173C1.33325 4.33303 1.33325 5.4998 1.33325 7.83335V36.1667C1.33325 38.5002 1.33325 39.667 1.78739 40.5583C2.18686 41.3423 2.82428 41.9797 3.60829 42.3792C4.49959 42.8334 5.66637 42.8334 7.99992 42.8334Z" stroke="white" stroke-width="2" stroke-linecap="round" stroke-linejoin="round"/>
</svg>
