<svg width="44" height="44" viewBox="0 0 44 44" fill="none" xmlns="http://www.w3.org/2000/svg">
<path d="M24.0826 19.9165L4.29092 39.7081M26.2043 4.37161C28.7418 6.05538 31.1808 8.04043 33.46 10.3196C35.7588 12.6184 37.7584 15.0798 39.4515 17.641M16.2804 13.4501L10.2911 11.4537C9.60135 11.2237 8.84163 11.3701 8.28659 11.8397L2.33418 16.8764C1.11558 17.9075 1.46179 19.8698 2.95967 20.4216L8.59966 22.4995M21.3348 35.2342L23.4127 40.8742C23.9645 42.3721 25.9268 42.7183 26.9579 41.4997L31.9946 35.5473C32.4642 34.9923 32.6105 34.2325 32.3806 33.5428L30.3842 27.5535M37.3088 1.73049L27.087 3.43412C25.9832 3.61808 24.9708 4.1606 24.2064 4.97776L10.4292 19.7051C6.85801 23.5226 6.95734 29.4842 10.6537 33.1806C14.3501 36.8769 20.3117 36.9762 24.1291 33.4051L38.8565 19.6279C39.6737 18.8634 40.2162 17.851 40.4001 16.7473L42.1038 6.52546C42.5738 3.70537 40.1289 1.26047 37.3088 1.73049Z" stroke="url(#paint0_linear_186_91)" stroke-width="2" stroke-linecap="round" stroke-linejoin="round"/>
<defs>
<linearGradient id="paint0_linear_186_91" x1="21.879" y1="1.67224" x2="21.879" y2="42.238" gradientUnits="userSpaceOnUse">
<stop stop-color="#964B00"/>
<stop offset="1" stop-color="#301800"/>
</linearGradient>
</defs>
</svg>
