<svg width="44" height="42" viewBox="0 0 44 42" fill="none" xmlns="http://www.w3.org/2000/svg">
<path d="M9.49996 9.49996L18.875 18.875M9.49996 9.49996H3.24996L1.16663 3.24996L3.24996 1.16663L9.49996 3.24996V9.49996ZM37.1228 2.7104L31.6486 8.1846C30.8236 9.00964 30.4111 9.42216 30.2565 9.89784C30.1206 10.3163 30.1206 10.767 30.2565 11.1854C30.4111 11.6611 30.8236 12.0736 31.6486 12.8986L32.1429 13.3929C32.968 14.218 33.3805 14.6305 33.8562 14.785C34.2746 14.921 34.7253 14.921 35.1437 14.785C35.6194 14.6305 36.0319 14.218 36.857 13.3929L41.9776 8.27229C42.5292 9.6143 42.8333 11.0841 42.8333 12.625C42.8333 18.9532 37.7032 24.0833 31.375 24.0833C30.612 24.0833 29.8665 24.0087 29.1453 23.8665C28.1325 23.6667 27.6261 23.5669 27.3191 23.5975C26.9927 23.63 26.8319 23.6789 26.5427 23.8337C26.2707 23.9792 25.9978 24.2521 25.4521 24.7978L10.5416 39.7083C8.81574 41.4342 6.01752 41.4342 4.29163 39.7083C2.56574 37.9824 2.56574 35.1841 4.29163 33.4583L19.2021 18.5478C19.7478 18.0021 20.0207 17.7292 20.1662 17.4572C20.321 17.168 20.3699 17.0072 20.4025 16.6808C20.433 16.3738 20.3332 15.8674 20.1334 14.8546C19.9912 14.1334 19.9166 13.3879 19.9166 12.625C19.9166 6.2967 25.0467 1.16663 31.375 1.16663C33.4698 1.16663 35.4333 1.72876 37.1228 2.7104ZM22.0001 28.2498L33.4583 39.7081C35.1842 41.4339 37.9824 41.4339 39.7083 39.7081C41.4342 37.9822 41.4341 35.1839 39.7082 33.4581L30.2819 24.0318C29.6146 23.9687 28.9639 23.8483 28.3349 23.6757C27.5244 23.4532 26.6353 23.6147 26.0409 24.209L22.0001 28.2498Z" stroke="url(#paint0_linear_186_106)" stroke-width="2" stroke-linecap="round" stroke-linejoin="round"/>
<defs>
<linearGradient id="paint0_linear_186_106" x1="22" y1="1.16663" x2="22" y2="41.0027" gradientUnits="userSpaceOnUse">
<stop stop-color="#964B00"/>
<stop offset="1" stop-color="#301800"/>
</linearGradient>
</defs>
</svg>
