<svg width="40" height="40" viewBox="0 0 40 40" fill="none" xmlns="http://www.w3.org/2000/svg">
<path d="M26.3552 13.75H6.45833C3.58185 13.75 1.25 11.4181 1.25 8.54167C1.25 5.66518 3.58185 3.33333 6.45833 3.33333H26.3552M13.6448 36.6667H33.5417C36.4181 36.6667 38.75 34.3348 38.75 31.4583C38.75 28.5818 36.4181 26.25 33.5417 26.25H13.6448M1.25 31.4583C1.25 35.4854 4.51459 38.75 8.54167 38.75C12.5687 38.75 15.8333 35.4854 15.8333 31.4583C15.8333 27.4313 12.5687 24.1667 8.54167 24.1667C4.51459 24.1667 1.25 27.4313 1.25 31.4583ZM38.75 8.54167C38.75 12.5687 35.4854 15.8333 31.4583 15.8333C27.4313 15.8333 24.1667 12.5687 24.1667 8.54167C24.1667 4.51459 27.4313 1.25 31.4583 1.25C35.4854 1.25 38.75 4.51459 38.75 8.54167Z" stroke="white" stroke-width="2" stroke-linecap="round" stroke-linejoin="round"/>
</svg>
