<svg width="44" height="44" viewBox="0 0 44 44" fill="none" xmlns="http://www.w3.org/2000/svg">
<path d="M10.5417 24.0834L12.176 27.3519C12.7291 28.4581 13.0057 29.0112 13.3751 29.4905C13.703 29.9158 14.0843 30.2971 14.5096 30.625C14.9889 30.9944 15.542 31.271 16.6482 31.8241L19.9167 33.4584L16.6482 35.0926C15.542 35.6457 14.9889 35.9223 14.5096 36.2918C14.0843 36.6196 13.703 37.0009 13.3751 37.4262C13.0057 37.9055 12.7291 38.4586 12.176 39.5648L10.5417 42.8334L8.90746 39.5648C8.35436 38.4586 8.07781 37.9055 7.70835 37.4262C7.38051 37.0009 6.99923 36.6196 6.57393 36.2918C6.09463 35.9223 5.54153 35.6457 4.43532 35.0926L1.16675 33.4584L4.43532 31.8241C5.54153 31.271 6.09463 30.9944 6.57393 30.625C6.99923 30.2971 7.38051 29.9158 7.70835 29.4905C8.07781 29.0112 8.35436 28.4581 8.90746 27.3519L10.5417 24.0834Z" stroke="white" stroke-width="2" stroke-linecap="round" stroke-linejoin="round"/>
<path d="M28.2501 1.16669L30.7055 7.55089C31.2931 9.07845 31.5868 9.84223 32.0437 10.4847C32.4485 11.0541 32.946 11.5516 33.5154 11.9564C34.1579 12.4133 34.9216 12.707 36.4492 13.2946L42.8334 15.75L36.4492 18.2055C34.9216 18.793 34.1579 19.0868 33.5154 19.5436C32.946 19.9485 32.4485 20.446 32.0437 21.0154C31.5868 21.6578 31.2931 22.4216 30.7055 23.9491L28.2501 30.3334L25.7946 23.9491C25.2071 22.4216 24.9133 21.6578 24.4565 21.0154C24.0516 20.446 23.5542 19.9485 22.9848 19.5436C22.3423 19.0868 21.5785 18.793 20.051 18.2055L13.6667 15.75L20.051 13.2946C21.5785 12.707 22.3423 12.4133 22.9847 11.9564C23.5541 11.5516 24.0516 11.0541 24.4565 10.4847C24.9133 9.84223 25.2071 9.07845 25.7946 7.55089L28.2501 1.16669Z" stroke="white" stroke-width="2" stroke-linecap="round" stroke-linejoin="round"/>
</svg>
